<?xml version="1.0" encoding="utf-8"?>
<!-- Generator: Adobe Illustrator 25.2.3, SVG Export Plug-In . SVG Version: 6.00 Build 0)  -->
<svg version="1.1" id="Layer_1" xmlns="http://www.w3.org/2000/svg" xmlns:xlink="http://www.w3.org/1999/xlink" x="0px" y="0px"
	 width="512px" height="512px" viewBox="0 0 512 512" enable-background="new 0 0 512 512" xml:space="preserve">
<path fill="#D3B47F" d="M385.8,512c-26.8,0-55.3-6.3-84.6-18.8c-28.7-12.2-57.5-28.8-85.4-49.1c-28-20.4-55-43.5-80.2-68.4
	c-25.1-25.4-48.1-52.3-68.3-80c-20.6-28.6-36.9-57.1-48.7-84.7C6.2,181.5,0,153,0,126c0-18.6,3.3-36.3,9.9-52.6
	c6.7-17.1,17.4-32.6,31.7-46.1C59.8,9.3,80.7,0,103.4,0c9.4,0,18.8,2.1,27,6.1c9.2,4.2,17,10.8,22.9,19.2l55.1,77.7
	c5,6.9,8.8,13.6,11.5,20.3c3,7.1,4.7,14.3,4.7,21.3c0,9.1-2.6,17.9-7.6,26.2c-3.6,6.4-9.1,13.4-16,20.3l-16.2,16.9
	c0.2,0.6,0.4,1.1,0.6,1.6c2.8,5,8.5,13.4,19.5,26.4c10.3,12,21.5,24.3,33.6,36.7c14.3,14.1,25.7,24.6,36.7,33.9
	c13.5,11.5,28.2,20.1,28.2,20.1l16.5-16.4c7.4-7.4,14.4-12.8,21.4-16.5c13-8,29.7-9.5,46.5-2.6c6.2,2.5,12.8,6.2,20,11.1l79.1,56.2
	c8.7,6,15.2,13.7,19.1,22.6c3.7,9.1,5.3,17.4,5.3,25.8c0,11.5-2.6,22.8-7.7,33.6c-5,10.6-11.3,20-19.1,28.7
	c-13.6,15-28.5,25.7-45.5,32.6C422.5,508.5,404.6,512,385.8,512z M103.4,35.7c-13.1,0-25.2,5.6-37,17.3
	C55.6,63.1,47.9,74.3,43.1,86.5c-4.9,12.2-7.3,25.4-7.3,39.4c0,22.2,5.3,46.1,15.8,70.9c10.7,25.2,25.7,51.3,44.7,77.7
	c19.1,26.2,40.9,51.7,64.6,75.7c23.8,23.6,49.4,45.5,76,64.8c25.8,18.8,52.2,34,78.4,45.1c40.7,17.3,78.8,21.4,110.2,8.3
	c12.1-5,22.8-12.7,32.7-23.6c5.4-6,9.8-12.5,13.3-19.9c2.8-6,4.2-12.1,4.2-18.3c0-3.9-0.8-7.6-2.5-11.9c-0.6-1.3-2.2-4.1-6.7-7.2
	l-79-56.1c-4.8-3.3-9.2-5.7-13.1-7.3c-6.2-2.5-10.2-2.6-15.4,0.6c-4.7,2.5-9,5.9-13.8,10.7l-18.2,17.9c-9.2,9.2-23.6,11.2-34.6,7.1
	l-6.3-2.8c-9.7-5.1-21.1-13.2-33.9-24.1c-11.6-9.9-23.6-21-38.8-35.9c-11.9-12.1-23.4-24.7-35.5-38.7
	c-11.2-13.2-19.3-24.5-24.3-33.6l-2.9-7c-1.5-5.4-1.9-8.5-1.9-11.8c0-8.6,3.1-16.2,9-22.2l17.8-18.6c4.8-4.8,8.4-9.3,10.7-13.3
	c1.9-3.1,2.7-5.7,2.7-8.1c0-2-0.7-4.7-1.9-7.5c-1.8-4.3-4.2-8.6-7.6-13.3l-55.3-78c-2.3-3.4-5.2-5.8-8.9-7.4
	C111.5,36.6,107.5,35.7,103.4,35.7z M428.7,184.6c0-19-12.8-45-32.6-66.2c-20.6-22.3-45.6-35-68.6-35c-9.9,0-17.9,8-17.9,17.9
	s8,17.9,17.9,17.9c12.9,0,28.7,8.8,42.4,23.6c15.9,17,23.1,34.7,23.1,41.9c0,9.9,8,17.9,17.9,17.9
	C420.7,202.4,428.7,194.4,428.7,184.6z M512,184.6C512,82.8,429.2,0,327.4,0c-9.9,0-17.9,8-17.9,17.9s8,17.9,17.9,17.9
	c82.1,0,148.8,66.8,148.8,148.8c0,9.9,8,17.9,17.9,17.9C504,202.4,512,194.4,512,184.6z"/>
</svg>
