<?xml version="1.0" encoding="utf-8"?>
<!-- Generator: Adobe Illustrator 25.2.3, SVG Export Plug-In . SVG Version: 6.00 Build 0)  -->
<svg version="1.1" id="Layer_1" xmlns="http://www.w3.org/2000/svg" xmlns:xlink="http://www.w3.org/1999/xlink" x="0px" y="0px"
	 width="512px" height="512px" viewBox="0 0 512 512" enable-background="new 0 0 512 512" xml:space="preserve">
<path d="M457.1,0H54.9C24.6,0,0,24.6,0,54.9v402.3C0,487.4,24.6,512,54.9,512h156.9V337.9h-72V256h72v-62.4
	c0-71,42.3-110.3,107.1-110.3c31,0,63.5,5.5,63.5,5.5v69.7h-35.7c-35.2,0-46.2,21.9-46.2,44.3V256h78.6l-12.6,81.9h-66V512h156.9
	c30.3,0,54.9-24.6,54.9-54.9V54.9C512,24.6,487.4,0,457.1,0z"/>
</svg>
