<?xml version="1.0" encoding="utf-8"?>
<!-- Generator: Adobe Illustrator 25.2.3, SVG Export Plug-In . SVG Version: 6.00 Build 0)  -->
<svg version="1.1" id="Layer_1" xmlns="http://www.w3.org/2000/svg" xmlns:xlink="http://www.w3.org/1999/xlink" x="0px" y="0px"
	 width="512px" height="512px" viewBox="0 0 512 512" enable-background="new 0 0 512 512" xml:space="preserve">
<path d="M256,195c-33.7,0-60.9,27.3-60.9,61c0,33.7,27.3,60.9,61,60.9c33.7,0,60.9-27.3,60.9-61C317,222.3,289.7,195.1,256,195z
	 M398.5,148.2c-6.3-15.9-18.9-28.5-34.8-34.8c-24-9.5-81.1-7.3-107.8-7.3s-83.7-2.2-107.8,7.3c-15.9,6.3-28.5,18.9-34.8,34.8
	c-9.5,24-7.3,81.2-7.3,107.8s-2.1,83.7,7.4,107.8c6.3,15.9,18.9,28.5,34.8,34.8c24,9.5,81.1,7.3,107.8,7.3s83.7,2.2,107.8-7.3
	c15.9-6.3,28.5-18.9,34.8-34.8c9.5-24,7.3-81.2,7.3-107.8S408.1,172.3,398.5,148.2L398.5,148.2z M256,349.7
	c-51.8,0-93.7-42-93.7-93.7s42-93.7,93.7-93.7s93.7,42,93.7,93.7c0.1,51.7-41.8,93.7-93.5,93.7C256.2,349.7,256.1,349.7,256,349.7z
	 M353.6,180.2c-12.1,0-21.9-9.8-21.9-21.9s9.8-21.9,21.9-21.9c12.1,0,21.9,9.8,21.9,21.9c0,0,0,0,0,0c0.1,12.1-9.7,21.9-21.7,21.9
	C353.7,180.3,353.6,180.3,353.6,180.2L353.6,180.2z M457.1,0H54.9C24.6,0,0,24.6,0,54.9v402.3C0,487.4,24.6,512,54.9,512h402.3
	c30.3,0,54.9-24.6,54.9-54.9V54.9C512,24.6,487.4,0,457.1,0z M437.6,331.4c-1.5,29.3-8.2,55.2-29.5,76.6
	c-21.4,21.3-47.3,28.1-76.6,29.5c-30.2,1.7-120.7,1.7-150.9,0c-29.3-1.5-55.2-8.2-76.6-29.5s-28.1-47.3-29.5-76.6
	c-1.7-30.2-1.7-120.7,0-150.9c1.5-29.3,8.1-55.2,29.5-76.6s47.4-28.1,76.6-29.5c30.2-1.7,120.7-1.7,150.9,0
	c29.3,1.5,55.2,8.2,76.6,29.5s28.1,47.3,29.5,76.6C439.3,210.8,439.3,301.2,437.6,331.4z"/>
</svg>
