<?xml version="1.0" encoding="utf-8"?>
<!-- Generator: Adobe Illustrator 25.2.3, SVG Export Plug-In . SVG Version: 6.00 Build 0)  -->
<svg version="1.1" id="Layer_1" xmlns="http://www.w3.org/2000/svg" xmlns:xlink="http://www.w3.org/1999/xlink" x="0px" y="0px"
	 width="512px" height="512px" viewBox="0 0 512 512" enable-background="new 0 0 512 512" xml:space="preserve">
<path fill="#D3B47F" d="M124.2,434.9c-21.1,0-40.1-3.7-57-11.2c-16.1-8.3-28.7-19.5-38-33.7c-8.4-12.5-15.6-28.3-21.5-47.4
	C2.5,322.7,0,301.5,0,279.1c0-41.6,10.6-80.2,31.7-115.9c22-36.6,55.8-65.2,101.4-86l11.4,22.4c-22.8,10-43.1,24.9-60.8,44.9
	c-17.7,19.1-29.1,39.5-34.2,61.1c-5.9,20.8-6.8,40.7-2.5,59.8c20.3-22.4,48.2-33.7,83.6-33.7c31.3,0,56.6,8.7,76,26.2
	c19.4,17.5,29.1,42.4,29.1,74.8c0,30.8-10.6,55.7-31.7,74.8C183.8,425.7,157.1,434.9,124.2,434.9z M400.5,434.9
	c-21.1,0-40.1-3.7-57-11.2c-16.1-8.3-28.7-19.5-38-33.7c-8.4-12.5-15.6-28.3-21.5-47.4c-5.1-19.9-7.6-41.1-7.6-63.6
	c0-41.6,10.6-80.2,31.7-115.9c22-36.6,55.8-65.2,101.4-86l11.4,22.4c-22.8,10-43.1,24.9-60.8,44.9c-17.7,19.1-29.1,39.5-34.2,61.1
	c-5.9,20.8-6.8,40.7-2.5,59.8c20.3-22.4,48.2-33.7,83.6-33.7c31.3,0,56.6,8.7,76,26.2c19.4,17.5,29.1,42.4,29.1,74.8
	c0,30.8-10.6,55.7-31.7,74.8C460,425.7,433.4,434.9,400.5,434.9z"/>
</svg>
