<?xml version="1.0" encoding="utf-8"?>
<!-- Generator: Adobe Illustrator 25.2.3, SVG Export Plug-In . SVG Version: 6.00 Build 0)  -->
<svg version="1.1" id="Layer_1" xmlns="http://www.w3.org/2000/svg" xmlns:xlink="http://www.w3.org/1999/xlink" x="0px" y="0px"
	 width="512px" height="512px" viewBox="0 0 512 512" enable-background="new 0 0 512 512" xml:space="preserve">
<path d="M36,36C0,72,0,129.9,0,245.8v20.5C0,382.1,0,440,36,476c36,36,93.9,36,209.8,36h20.5c115.9,0,173.8,0,209.8-36
	c36-36,36-93.9,36-209.8v-20.5C512,129.9,512,72,476,36C440,0,382.1,0,266.2,0h-20.5C129.9,0,72,0,36,36z M86.4,155.7h58.5
	c1.9,97.7,45,139.1,79.1,147.6V155.7h55V240c33.7-3.6,69.1-42,81.1-84.3h55c-4.5,21.9-13.5,42.6-26.4,60.9
	c-12.9,18.3-29.4,33.7-48.5,45.3c21.3,10.6,40.2,25.6,55.3,44c15.1,18.4,26.1,39.8,32.4,62.9h-60.6c-5.6-20-16.9-37.9-32.7-51.4
	c-15.7-13.5-35.1-22.2-55.7-24.7v76.2h-6.6C155.7,368.9,89.2,288.9,86.4,155.7z"/>
</svg>
