<?xml version="1.0" encoding="utf-8"?><svg viewBox="0 0 40 40" xmlns="http://www.w3.org/2000/svg" xmlns:xlink="http://www.w3.org/1999/xlink"><style>:root>svg{display:none}:root>svg:target{display:block}</style><svg xml:space="preserve" viewBox="0 0 512 512" id="call" xmlns="http://www.w3.org/2000/svg"><path fill="#D3B47F" d="M385.8 512c-26.8 0-55.3-6.3-84.6-18.8-28.7-12.2-57.5-28.8-85.4-49.1-28-20.4-55-43.5-80.2-68.4-25.1-25.4-48.1-52.3-68.3-80-20.6-28.6-36.9-57.1-48.7-84.7C6.2 181.5 0 153 0 126c0-18.6 3.3-36.3 9.9-52.6 6.7-17.1 17.4-32.6 31.7-46.1C59.8 9.3 80.7 0 103.4 0c9.4 0 18.8 2.1 27 6.1 9.2 4.2 17 10.8 22.9 19.2l55.1 77.7c5 6.9 8.8 13.6 11.5 20.3 3 7.1 4.7 14.3 4.7 21.3 0 9.1-2.6 17.9-7.6 26.2-3.6 6.4-9.1 13.4-16 20.3L184.8 208c.2.6.4 1.1.6 1.6 2.8 5 8.5 13.4 19.5 26.4 10.3 12 21.5 24.3 33.6 36.7 14.3 14.1 25.7 24.6 36.7 33.9 13.5 11.5 28.2 20.1 28.2 20.1l16.5-16.4c7.4-7.4 14.4-12.8 21.4-16.5 13-8 29.7-9.5 46.5-2.6 6.2 2.5 12.8 6.2 20 11.1l79.1 56.2c8.7 6 15.2 13.7 19.1 22.6 3.7 9.1 5.3 17.4 5.3 25.8 0 11.5-2.6 22.8-7.7 33.6-5 10.6-11.3 20-19.1 28.7-13.6 15-28.5 25.7-45.5 32.6-16.5 6.7-34.4 10.2-53.2 10.2zM103.4 35.7c-13.1 0-25.2 5.6-37 17.3-10.8 10.1-18.5 21.3-23.3 33.5-4.9 12.2-7.3 25.4-7.3 39.4 0 22.2 5.3 46.1 15.8 70.9 10.7 25.2 25.7 51.3 44.7 77.7 19.1 26.2 40.9 51.7 64.6 75.7 23.8 23.6 49.4 45.5 76 64.8 25.8 18.8 52.2 34 78.4 45.1 40.7 17.3 78.8 21.4 110.2 8.3 12.1-5 22.8-12.7 32.7-23.6 5.4-6 9.8-12.5 13.3-19.9 2.8-6 4.2-12.1 4.2-18.3 0-3.9-.8-7.6-2.5-11.9-.6-1.3-2.2-4.1-6.7-7.2l-79-56.1c-4.8-3.3-9.2-5.7-13.1-7.3-6.2-2.5-10.2-2.6-15.4.6-4.7 2.5-9 5.9-13.8 10.7L327 353.3c-9.2 9.2-23.6 11.2-34.6 7.1l-6.3-2.8c-9.7-5.1-21.1-13.2-33.9-24.1-11.6-9.9-23.6-21-38.8-35.9-11.9-12.1-23.4-24.7-35.5-38.7-11.2-13.2-19.3-24.5-24.3-33.6l-2.9-7c-1.5-5.4-1.9-8.5-1.9-11.8 0-8.6 3.1-16.2 9-22.2l17.8-18.6c4.8-4.8 8.4-9.3 10.7-13.3 1.9-3.1 2.7-5.7 2.7-8.1 0-2-.7-4.7-1.9-7.5-1.8-4.3-4.2-8.6-7.6-13.3l-55.3-78c-2.3-3.4-5.2-5.8-8.9-7.4-3.8-1.5-7.8-2.4-11.9-2.4zm325.3 148.9c0-19-12.8-45-32.6-66.2-20.6-22.3-45.6-35-68.6-35-9.9 0-17.9 8-17.9 17.9s8 17.9 17.9 17.9c12.9 0 28.7 8.8 42.4 23.6 15.9 17 23.1 34.7 23.1 41.9 0 9.9 8 17.9 17.9 17.9 9.8-.2 17.8-8.2 17.8-18zm83.3 0C512 82.8 429.2 0 327.4 0c-9.9 0-17.9 8-17.9 17.9s8 17.9 17.9 17.9c82.1 0 148.8 66.8 148.8 148.8 0 9.9 8 17.9 17.9 17.9 9.9-.1 17.9-8.1 17.9-17.9z"/></svg><svg xml:space="preserve" viewBox="0 0 512 512" id="facebook" xmlns="http://www.w3.org/2000/svg"><path d="M457.1 0H54.9C24.6 0 0 24.6 0 54.9v402.3C0 487.4 24.6 512 54.9 512h156.9V337.9h-72V256h72v-62.4c0-71 42.3-110.3 107.1-110.3 31 0 63.5 5.5 63.5 5.5v69.7h-35.7c-35.2 0-46.2 21.9-46.2 44.3V256h78.6l-12.6 81.9h-66V512h156.9c30.3 0 54.9-24.6 54.9-54.9V54.9C512 24.6 487.4 0 457.1 0z"/></svg><svg xml:space="preserve" viewBox="0 0 512 512" id="instagram" xmlns="http://www.w3.org/2000/svg"><path d="M256 195c-33.7 0-60.9 27.3-60.9 61s27.3 60.9 61 60.9 60.9-27.3 60.9-61c0-33.6-27.3-60.8-61-60.9zm142.5-46.8c-6.3-15.9-18.9-28.5-34.8-34.8-24-9.5-81.1-7.3-107.8-7.3s-83.7-2.2-107.8 7.3c-15.9 6.3-28.5 18.9-34.8 34.8-9.5 24-7.3 81.2-7.3 107.8s-2.1 83.7 7.4 107.8c6.3 15.9 18.9 28.5 34.8 34.8 24 9.5 81.1 7.3 107.8 7.3s83.7 2.2 107.8-7.3c15.9-6.3 28.5-18.9 34.8-34.8 9.5-24 7.3-81.2 7.3-107.8s2.2-83.7-7.4-107.8zM256 349.7c-51.8 0-93.7-42-93.7-93.7s42-93.7 93.7-93.7 93.7 42 93.7 93.7c.1 51.7-41.8 93.7-93.5 93.7h-.2zm97.6-169.5c-12.1 0-21.9-9.8-21.9-21.9s9.8-21.9 21.9-21.9c12.1 0 21.9 9.8 21.9 21.9.1 12.1-9.7 21.9-21.7 21.9-.1.1-.2.1-.2 0zM457.1 0H54.9C24.6 0 0 24.6 0 54.9v402.3C0 487.4 24.6 512 54.9 512h402.3c30.3 0 54.9-24.6 54.9-54.9V54.9C512 24.6 487.4 0 457.1 0zm-19.5 331.4c-1.5 29.3-8.2 55.2-29.5 76.6-21.4 21.3-47.3 28.1-76.6 29.5-30.2 1.7-120.7 1.7-150.9 0-29.3-1.5-55.2-8.2-76.6-29.5s-28.1-47.3-29.5-76.6c-1.7-30.2-1.7-120.7 0-150.9 1.5-29.3 8.1-55.2 29.5-76.6s47.4-28.1 76.6-29.5c30.2-1.7 120.7-1.7 150.9 0 29.3 1.5 55.2 8.2 76.6 29.5s28.1 47.3 29.5 76.6c1.7 30.3 1.7 120.7 0 150.9z"/></svg><svg xml:space="preserve" viewBox="0 0 512 512" id="quotes" xmlns="http://www.w3.org/2000/svg"><path fill="#D3B47F" d="M124.2 434.9c-21.1 0-40.1-3.7-57-11.2-16.1-8.3-28.7-19.5-38-33.7-8.4-12.5-15.6-28.3-21.5-47.4C2.5 322.7 0 301.5 0 279.1c0-41.6 10.6-80.2 31.7-115.9 22-36.6 55.8-65.2 101.4-86l11.4 22.4c-22.8 10-43.1 24.9-60.8 44.9C66 163.6 54.6 184 49.5 205.6c-5.9 20.8-6.8 40.7-2.5 59.8 20.3-22.4 48.2-33.7 83.6-33.7 31.3 0 56.6 8.7 76 26.2s29.1 42.4 29.1 74.8c0 30.8-10.6 55.7-31.7 74.8-20.2 18.2-46.9 27.4-79.8 27.4zm276.3 0c-21.1 0-40.1-3.7-57-11.2-16.1-8.3-28.7-19.5-38-33.7-8.4-12.5-15.6-28.3-21.5-47.4-5.1-19.9-7.6-41.1-7.6-63.6 0-41.6 10.6-80.2 31.7-115.9 22-36.6 55.8-65.2 101.4-86l11.4 22.4c-22.8 10-43.1 24.9-60.8 44.9-17.7 19.1-29.1 39.5-34.2 61.1-5.9 20.8-6.8 40.7-2.5 59.8 20.3-22.4 48.2-33.7 83.6-33.7 31.3 0 56.6 8.7 76 26.2s29.1 42.4 29.1 74.8c0 30.8-10.6 55.7-31.7 74.8-20.4 18.3-47 27.5-79.9 27.5z"/></svg><svg xml:space="preserve" viewBox="0 0 512 512" id="vk" xmlns="http://www.w3.org/2000/svg"><path d="M36 36C0 72 0 129.9 0 245.8v20.5C0 382.1 0 440 36 476s93.9 36 209.8 36h20.5c115.9 0 173.8 0 209.8-36s36-93.9 36-209.8v-20.5C512 129.9 512 72 476 36S382.1 0 266.2 0h-20.5C129.9 0 72 0 36 36zm50.4 119.7h58.5c1.9 97.7 45 139.1 79.1 147.6V155.7h55V240c33.7-3.6 69.1-42 81.1-84.3h55c-4.5 21.9-13.5 42.6-26.4 60.9a162.54 162.54 0 0 1-48.5 45.3c21.3 10.6 40.2 25.6 55.3 44 15.1 18.4 26.1 39.8 32.4 62.9h-60.6c-5.6-20-16.9-37.9-32.7-51.4-15.7-13.5-35.1-22.2-55.7-24.7v76.2h-6.6c-116.6 0-183.1-80-185.9-213.2z"/></svg></svg>